<svg xmlns="http://www.w3.org/2000/svg" viewBox="0 0 512 512" width="512" height="512">
	<style>
		tspan { white-space:pre }
		.shp0 { fill: #ff0000 } 
	</style>
	<path id="Layer" fill-rule="evenodd" class="shp0" d="M504 256C504 393 392.96 504 256 504C119.04 504 8 393 8 256C8 119.08 119.04 8 256 8C392.96 8 504 119.08 504 256ZM256 306C230.59 306 210 326.6 210 352C210 377.4 230.59 398 256 398C281.4 398 302 377.4 302 352C302 326.6 281.4 306 256 306ZM219.75 276.65C220.09 283.02 225.35 288 231.73 288L280.27 288C286.65 288 291.91 283.02 292.25 276.65L299.67 140.65C300.05 133.78 294.57 128 287.69 128L224.31 128C217.42 128 211.95 133.78 212.33 140.65L219.75 276.65Z" />
</svg>